<?xml version="1.0" encoding="utf-8"?>
<!-- Generator: Adobe Illustrator 24.1.1, SVG Export Plug-In . SVG Version: 6.00 Build 0)  -->
<svg version="1.1" id="Слой_1" xmlns="http://www.w3.org/2000/svg" xmlns:xlink="http://www.w3.org/1999/xlink" x="0px" y="0px"
	 viewBox="0 0 24 24" style="enable-background:new 0 0 24 24;" xml:space="preserve">
<style type="text/css">
	.st093823{fill:#FF0031;}
	.st193823{fill:#AE2538;}
	.st293823{fill:#FFF5F5;}
	.st393823{fill:#DFEBF1;}
</style>
<g>
	<ellipse class="st093823" cx="12" cy="12" rx="12" ry="12"/>
</g>
<path class="st193823" d="M12,0v24c6.6,0,12-5.4,12-12S18.6,0,12,0L12,0z"/>
<path class="st293823" d="M17.4,8.6l-2-2c-0.1-0.1-0.3-0.1-0.4,0l-2.9,2.9c-0.1,0.1-0.3,0.1-0.4,0L8.9,6.5c-0.1-0.1-0.3-0.1-0.4,0l-2,2
	c-0.1,0.1-0.1,0.3,0,0.4l2.9,2.9c0.1,0.1,0.1,0.3,0,0.4L6.5,15c-0.1,0.1-0.1,0.3,0,0.4l2,2c0.1,0.1,0.3,0.1,0.4,0l2.9-2.9
	c0.1-0.1,0.3-0.1,0.4,0l2.9,2.9c0.1,0.1,0.3,0.1,0.4,0l2-2c0.1-0.1,0.1-0.3,0-0.4l-2.9-2.9c-0.1-0.1-0.1-0.3,0-0.4l2.9-2.9
	C17.5,8.8,17.5,8.7,17.4,8.6z"/>
<path class="st393823" d="M17.4,8.9c0.1-0.1,0.1-0.3,0-0.4l-2-2c-0.1-0.1-0.3-0.1-0.4,0l-2.9,2.9c0,0-0.1,0.1-0.2,0.1v5
	c0.1,0,0.1,0,0.2,0.1l2.9,2.9c0.1,0.1,0.3,0.1,0.4,0l2-2c0.1-0.1,0.1-0.3,0-0.4l-2.9-2.9c-0.1-0.1-0.1-0.3,0-0.4L17.4,8.9z"/>
</svg>
