<?xml version="1.0" encoding="utf-8"?>
<!-- Generator: Adobe Illustrator 24.1.1, SVG Export Plug-In . SVG Version: 6.00 Build 0)  -->
<svg version="1.1" id="Слой_1" xmlns="http://www.w3.org/2000/svg" xmlns:xlink="http://www.w3.org/1999/xlink" x="0px" y="0px"
	 viewBox="0 0 24 24" style="enable-background:new 0 0 24 24;" xml:space="preserve">
<style type="text/css">
	.st0922{fill:#00DF76;}
	.st1922{fill:#00AB5E;}
	.st2922{fill:#FFF5F5;}
	.st3922{fill:#DFEBF1;}
</style>
<g>
	<g>
		<g>
			<ellipse class="st0922" cx="12" cy="12" rx="12" ry="12"/>
		</g>
		<path class="st1922" d="M12,0C12,0,12,0,12,0l0,24c0,0,0,0,0,0c6.6,0,12-5.4,12-12S18.6,0,12,0L12,0z"/>
		<path class="st2922" d="M5.2,12.2l4.9,4.9c0.2,0.2,0.6,0.2,0.8,0l8-8c0.2-0.2,0.2-0.6,0-0.8l-1.5-1.4c-0.2-0.2-0.6-0.2-0.8,0
			l-5.8,5.8c-0.2,0.2-0.6,0.2-0.8,0l-2.6-2.6c-0.2-0.2-0.5-0.2-0.8,0l-1.4,1.4C5,11.7,5,12,5.2,12.2L5.2,12.2z"/>
		<path class="st3922" d="M17.4,6.9c-0.2-0.2-0.6-0.2-0.8,0L12,11.5v4.4l6.8-6.8c0.2-0.2,0.2-0.6,0-0.8L17.4,6.9z"/>
	</g>
</g>
</svg>
